<svg display="none" xmlns="http://www.w3.org/2000/svg">
    <symbol id="twitter" viewBox="0 0 24 24">
        <g clip-path="url(#clip0)">
            <path d="M24 4.55923C23.1166 4.95065 22.1688 5.2161 21.173 5.33461C22.1898 4.7257 22.9682 3.7599 23.3371 2.61261C22.3833 3.17649 21.3305 3.58594 20.2086 3.8079C19.3103 2.84959 18.0326 2.25269 16.6153 2.25269C13.8963 2.25269 11.6917 4.45727 11.6917 7.17476C11.6917 7.56017 11.7352 7.9366 11.8192 8.29657C7.72801 8.09108 4.1002 6.13096 1.67216 3.15249C1.24773 3.87837 1.00628 4.72417 1.00628 5.62704C1.00628 7.33523 1.87612 8.84245 3.19589 9.72425C2.38902 9.69727 1.63016 9.47531 0.965805 9.10637V9.16786C0.965805 11.5524 2.66349 13.5425 4.91455 13.9955C4.50212 14.1064 4.06722 14.1679 3.6173 14.1679C3.29938 14.1679 2.99192 14.1364 2.69047 14.0764C3.31734 16.0336 5.13502 17.4568 7.28863 17.4958C5.60444 18.8156 3.48083 19.5999 1.17428 19.5999C0.776863 19.5999 0.385412 19.5759 0 19.5324C2.1791 20.9317 4.76612 21.7475 7.54659 21.7475C16.6034 21.7475 21.554 14.2459 21.554 7.74017L21.5375 7.1028C22.5048 6.41288 23.3416 5.54606 24 4.55923Z"/>
        </g>
    </symbol>
    <symbol id="youtube" viewBox="0 0 24 24">
        <g>
            <path d="M23.0645 5.44991C22.1982 4.42008 20.5987 4 17.5441 4H6.45569C3.33112 4 1.70454 4.44717 0.841471 5.54359C0 6.61259 0 8.18769 0 10.3677V14.5227C0 18.746 0.9984 20.8903 6.45569 20.8903H17.5442C20.1931 20.8903 21.661 20.5196 22.6106 19.6108C23.5845 18.6788 24 17.1571 24 14.5227V10.3677C24 8.0687 23.9349 6.48431 23.0645 5.44991ZM15.4081 13.0188L10.3729 15.6504C10.2603 15.7092 10.1372 15.7384 10.0143 15.7384C9.87507 15.7384 9.73618 15.7009 9.61316 15.6265C9.38152 15.4861 9.24008 15.235 9.24008 14.9642V9.71796C9.24008 9.44761 9.38113 9.19677 9.61231 9.05634C9.84356 8.9159 10.1312 8.9063 10.3711 9.03094L15.4063 11.6455C15.6625 11.7786 15.8234 12.043 15.8237 12.3316C15.8241 12.6203 15.6639 12.8852 15.4081 13.0188Z"/>
        </g>
    </symbol>
    <symbol id="facebook" viewBox="0 0 24 24">
        <g>
            <path d="M18.487 0.0049936L15.3747 0C11.8782 0 9.61861 2.31828 9.61861 5.90643V8.62969H6.48937C6.21897 8.62969 6 8.84891 6 9.11932V13.065C6 13.3354 6.21922 13.5544 6.48937 13.5544H9.61861V23.5106C9.61861 23.781 9.83758 24 10.108 24H14.1908C14.4612 24 14.6801 23.7808 14.6801 23.5106V13.5544H18.3389C18.6093 13.5544 18.8283 13.3354 18.8283 13.065L18.8298 9.11932C18.8298 8.98948 18.7781 8.86514 18.6865 8.77326C18.5949 8.68138 18.47 8.62969 18.3402 8.62969H14.6801V6.32115C14.6801 5.21157 14.9445 4.64829 16.3899 4.64829L18.4865 4.64755C18.7567 4.64755 18.9756 4.42833 18.9756 4.15817V0.494367C18.9756 0.224462 18.7569 0.00549296 18.487 0.0049936Z"/>
        </g>
    </symbol>
    <symbol id="instagram" viewBox="0 0 56.693 56.693">
        <g>
            <path d="M43.414,4.831H13c-5.283,0-9.581,4.297-9.581,9.58v10.12v20.295c0,5.283,4.298,9.58,9.581,9.58h30.415  c5.283,0,9.58-4.297,9.58-9.58V24.53v-10.12C52.994,9.127,48.697,4.831,43.414,4.831z M46.162,10.544l1.096-0.004v1.091v7.312  l-8.375,0.027l-0.029-8.402L46.162,10.544z M21.131,24.53c1.588-2.197,4.164-3.638,7.076-3.638s5.488,1.441,7.074,3.638  c1.033,1.434,1.652,3.188,1.652,5.088c0,4.811-3.918,8.725-8.727,8.725c-4.812,0-8.726-3.914-8.726-8.725  C19.481,27.718,20.098,25.964,21.131,24.53z M48.164,44.825c0,2.621-2.131,4.75-4.75,4.75H13c-2.62,0-4.751-2.129-4.751-4.75V24.53  h7.4c-0.639,1.572-0.998,3.289-0.998,5.088c0,7.473,6.08,13.557,13.556,13.557c7.475,0,13.555-6.084,13.555-13.557  c0-1.799-0.361-3.516-1-5.088h7.402V44.825z"/>
        </g>
    </symbol>
    <symbol id="linkedin" viewBox="0 0 24 24">
        <g>
            <path d="M24 14.5937V23.4666H18.856V15.1879C18.856 13.1082 18.112 11.6889 16.2501 11.6889C14.8287 11.6889 13.9828 12.6454 13.6107 13.5707C13.475 13.9015 13.4401 14.3619 13.4401 14.8249V23.4666H8.29438C8.29438 23.4666 8.36368 9.44522 8.29438 7.99249H13.4396V10.1859C13.4291 10.2023 13.4156 10.22 13.4058 10.2359H13.4396V10.1859C14.1232 9.13302 15.344 7.62897 18.0766 7.62897C21.462 7.62891 24 9.84061 24 14.5937ZM2.91175 0.533203C1.15141 0.533203 0 1.68785 0 3.20624C0 4.69155 1.1181 5.88124 2.84345 5.88124H2.87782C4.67225 5.88124 5.78823 4.69177 5.78823 3.20624C5.75442 1.68785 4.67225 0.533203 2.91175 0.533203ZM0.30561 23.4666H5.44936V7.99249H0.30561V23.4666Z"/>
        </g>
    </symbol>
</svg>