<svg width="24" height="24" viewBox="0 0 24 24" fill="none" xmlns="http://www.w3.org/2000/svg">
<g clip-path="url(#clip0)">
<path d="M24 4.55923C23.1166 4.95065 22.1688 5.2161 21.173 5.33461C22.1898 4.7257 22.9682 3.7599 23.3371 2.61261C22.3833 3.17649 21.3305 3.58594 20.2086 3.8079C19.3103 2.84959 18.0326 2.25269 16.6153 2.25269C13.8963 2.25269 11.6917 4.45727 11.6917 7.17476C11.6917 7.56017 11.7352 7.9366 11.8192 8.29657C7.72801 8.09108 4.1002 6.13096 1.67216 3.15249C1.24773 3.87837 1.00628 4.72417 1.00628 5.62704C1.00628 7.33523 1.87612 8.84245 3.19589 9.72425C2.38902 9.69727 1.63016 9.47531 0.965805 9.10637V9.16786C0.965805 11.5524 2.66349 13.5425 4.91455 13.9955C4.50212 14.1064 4.06722 14.1679 3.6173 14.1679C3.29938 14.1679 2.99192 14.1364 2.69047 14.0764C3.31734 16.0336 5.13502 17.4568 7.28863 17.4958C5.60444 18.8156 3.48083 19.5999 1.17428 19.5999C0.776863 19.5999 0.385412 19.5759 0 19.5324C2.1791 20.9317 4.76612 21.7475 7.54659 21.7475C16.6034 21.7475 21.554 14.2459 21.554 7.74017L21.5375 7.1028C22.5048 6.41288 23.3416 5.54606 24 4.55923Z" fill="white"/>
</g>
<defs>
<clipPath id="clip0">
<rect width="24" height="24" fill="white"/>
</clipPath>
</defs>
</svg>
