<svg width="24" height="24" viewBox="0 0 24 24" fill="none" xmlns="http://www.w3.org/2000/svg">
<path d="M23.0645 5.44991C22.1982 4.42008 20.5987 4 17.5441 4H6.45569C3.33112 4 1.70454 4.44717 0.841471 5.54359C0 6.61259 0 8.18769 0 10.3677V14.5227C0 18.746 0.9984 20.8903 6.45569 20.8903H17.5442C20.1931 20.8903 21.661 20.5196 22.6106 19.6108C23.5845 18.6788 24 17.1571 24 14.5227V10.3677C24 8.0687 23.9349 6.48431 23.0645 5.44991ZM15.4081 13.0188L10.3729 15.6504C10.2603 15.7092 10.1372 15.7384 10.0143 15.7384C9.87507 15.7384 9.73618 15.7009 9.61316 15.6265C9.38152 15.4861 9.24008 15.235 9.24008 14.9642V9.71796C9.24008 9.44761 9.38113 9.19677 9.61231 9.05634C9.84356 8.9159 10.1312 8.9063 10.3711 9.03094L15.4063 11.6455C15.6625 11.7786 15.8234 12.043 15.8237 12.3316C15.8241 12.6203 15.6639 12.8852 15.4081 13.0188Z" fill="white"/>
</svg>
